# xmcd
#
# Track frame offsets: 
#        150
#        13004
#        28710
#        39001
#        50259
#        68086
#        81449
#        88911
#        105950
#        119470
#        138506
#        148905
#        165481
#        177969
#        190799
#        204734
#        218757
#        231756
#        241647
#        253710
#        264162
#
# Disc length: 3687 seconds
#
# Revision: 5
# Processed by: cddbd v1.5.1PL2 Copyright (c) Steve Scherf et al.
# Submitted via: ExactAudioCopy v0.95a4
#
DISCID=1b0e6515
DTITLE=Various Artist - Wanted!
DYEAR=1996
DGENRE=
TTITLE0=Waylon Jennings - My Heroes Have Always Been Cowboys
TTITLE1=Waylong Jennings - Honky Tonk Heroes (Like Me)
TTITLE2=Jessi Colter - I'm Looking For Blue Eyes
TTITLE3=Jessi Colter - You Mean To Say
TTITLE4=Waylon and Jessi - Suspicious Minds
TTITLE5=Waylon and Willie - A Good Hearted Woman
TTITLE6=Waylon and Willie - Heaven And Hell
TTITLE7=Willie Nelson - Me And Paul
TTITLE8=Willie Nelson - Yesterday's Wine
TTITLE9=Tompall Glaser - T For Texas
TTITLE10=Tompall Glaser - Put Another Log On The Fire
TTITLE11=Waylon Jennings - Slow Movin' Outlaws
TTITLE12=Waylon Jennings - (I'm A) Ramblin' Man
TTITLE13=Jessi Colter - If She's Where You Feel Like Livin' (You Won't
TTITLE13=Feel At Home With Me)
TTITLE14=Jessi Colter - It's Not Easy
TTITLE15=Jessi Colter - Why You Been Gone So Long
TTITLE16=Waylon and Jessi - Under Your Spell Again
TTITLE17=Waylon and Jessi - I Ain't The One
TTITLE18=Willie Nelson - You Left A Long, Long Time Ago
TTITLE19=Willie Nelson - Healing Hands Of Time
TTITLE20=Waylon and Willie - Nowhere Road
EXTD=Waylon Jennings, Willie Nelson,\nJessi Colter and Tompall Glaser
EXTT0=Waylon Jennings
EXTT1=Waylon Jennings
EXTT2=Jessi Colter
EXTT3=Jessi Colter
EXTT4=Waylon and Jessi
EXTT5=Waylon and Wille
EXTT6=Waylon and Wille
EXTT7=Wille Nelson
EXTT8=Wille Nelson
EXTT9=Tompall Glaser
EXTT10=Tompall Glaser
EXTT11=Waylon Jennings
EXTT12=Waylon Jennings
EXTT13=Jessi Colter
EXTT14=Jessi Colter
EXTT15=Jessi Colter
EXTT16=Waylon and Jessi
EXTT17=Waylon and Jessi
EXTT18=Willie Nelson
EXTT19=Willie Nelson
EXTT20=Waylon and Willie
PLAYORDER=
